<?xml version="1.0" encoding="UTF-8"?>
<!DOCTYPE svg PUBLIC "-//W3C//DTD SVG 1.1//EN" "http://www.w3.org/Graphics/SVG/1.1/DTD/svg11.dtd">
<!-- Creator: CorelDRAW X6 -->
<svg xmlns="http://www.w3.org/2000/svg" xml:space="preserve" width="4.68055in" height="3.27778in" version="1.1" style="shape-rendering:geometricPrecision; text-rendering:geometricPrecision; image-rendering:optimizeQuality; fill-rule:evenodd; clip-rule:evenodd"
viewBox="0 0 4681 3278"
 xmlns:xlink="http://www.w3.org/1999/xlink">
 <defs>
  <style type="text/css">
   <![CDATA[
    .str0 {stroke:#0A2766;stroke-width:3}
    .fil13 {fill:none}
    .fil12 {fill:#0A2766}
    .fil8 {fill:#0D497A}
    .fil11 {fill:#13347D}
    .fil33 {fill:#140D0A}
    .fil14 {fill:#1A64A1}
    .fil15 {fill:#1B69A8}
    .fil19 {fill:#1D5EA4}
    .fil2 {fill:#2275B9}
    .fil17 {fill:#2D3B57}
    .fil23 {fill:#33516B}
    .fil32 {fill:#362A20}
    .fil21 {fill:#3C3754}
    .fil9 {fill:#3E4D6E}
    .fil16 {fill:#499BDE}
    .fil4 {fill:#516287}
    .fil34 {fill:#5C4E42}
    .fil10 {fill:#5C6C91}
    .fil3 {fill:#61ABE8}
    .fil0 {fill:#61DDFF}
    .fil5 {fill:#6F83AD}
    .fil18 {fill:#77C0FC}
    .fil1 {fill:#96E8FF}
    .fil24 {fill:#E88B74}
    .fil31 {fill:#ED7376}
    .fil6 {fill:#EDF4FF}
    .fil25 {fill:#F7B495}
    .fil30 {fill:#FAB491}
    .fil29 {fill:#FDD68B}
    .fil7 {fill:white}
    .fil36 {fill:#61DDFF;fill-rule:nonzero}
    .fil28 {fill:#CBD5D6;fill-rule:nonzero}
    .fil35 {fill:#D2E68D;fill-rule:nonzero}
    .fil20 {fill:url(#id0)}
    .fil22 {fill:url(#id1)}
    .fil26 {fill:url(#id2)}
    .fil27 {fill:url(#id3)}
   ]]>
  </style>
  <linearGradient id="id0" gradientUnits="userSpaceOnUse" x1="3550.09" y1="1164.41" x2="3550.09" y2="1408.04">
   <stop offset="0" style="stop-color:#C46A67"/>
   <stop offset="1" style="stop-color:#FAB490"/>
  </linearGradient>
  <linearGradient id="id1" gradientUnits="userSpaceOnUse" x1="3550.09" y1="883.933" x2="3550.09" y2="1303.15">
   <stop offset="0" style="stop-color:#FAB490"/>
   <stop offset="1" style="stop-color:#F1B39A"/>
  </linearGradient>
  <linearGradient id="id2" gradientUnits="userSpaceOnUse" x1="3550.04" y1="1835.04" x2="3550.04" y2="1496.75">
   <stop offset="0" style="stop-color:#DFEBFF"/>
   <stop offset="1" style="stop-color:white"/>
  </linearGradient>
  <linearGradient id="id3" gradientUnits="userSpaceOnUse" x1="3552.37" y1="2261.33" x2="3552.37" y2="1824.61">
   <stop offset="0" style="stop-color:#ECF2FF"/>
   <stop offset="1" style="stop-color:#FEFEFE"/>
  </linearGradient>
 </defs>
 <g id="Layer_x0020_1">
  <metadata id="CorelCorpID_0Corel-Layer"/>
  <polygon class="fil0" points="3,3274 4670,3274 4670,7 3,7 "/>
  <path class="fil1" d="M3975 3031l-3304 0c-50,0 -91,-41 -91,-91l0 0c0,-50 41,-91 91,-91l3304 0c50,0 91,41 91,91l0 0c0,50 -41,91 -91,91z"/>
  <path class="fil1" d="M2390 554l689 0 0 1297 -689 0 0 -1297zm46 180l597 0 0 82 -597 0 0 -82z"/>
  <path class="fil1" d="M1594 554l689 0 0 1297 -689 0 0 -1297zm46 180l597 0 0 82 -597 0 0 -82z"/>
  <polygon class="fil1" points="792,2984 1236,2984 1236,1474 792,1474 "/>
  <polygon class="fil1" points="988,2984 1432,2984 1432,1474 988,1474 "/>
  <path class="fil2" d="M1690 957l0 0c18,0 32,15 32,32l0 1898 -65 0 0 -1898c0,-18 15,-32 32,-32z"/>
  <path class="fil2" d="M1829 984l663 -178c17,-5 27,-22 23,-40l0 0c-5,-17 -22,-27 -40,-23l-663 178c-17,5 -27,22 -23,40l0 0c5,17 22,27 40,23z"/>
  <path class="fil3" d="M1698 1019l663 -178c17,-5 27,-22 23,-40l0 0c-5,-17 -22,-27 -40,-23l-663 178c-17,5 -27,22 -23,40l0 0c5,17 22,27 40,23z"/>
  <path class="fil4" d="M1853 1022l922 -247c55,-15 111,18 126,73l27 99 -1121 300 -27 -99c-15,-55 18,-111 73,-126z"/>
  <path class="fil5" d="M1853 1022l629 -169c55,-15 111,18 126,73l27 99 -828 222 -27 -99c-15,-55 18,-111 73,-126z"/>
  <path class="fil6" d="M2188 1145l588 -158 5 18c3,10 -3,20 -13,23l-552 148c-10,3 -20,-3 -23,-13l-5 -18z"/>
  <path class="fil7" d="M1927 1215l588 -158 5 18c3,10 -3,20 -13,23l-552 148c-10,3 -20,-3 -23,-13l-5 -18z"/>
  <path class="fil7" d="M1689 972c9,0 16,7 16,16 0,9 -7,16 -16,16 -9,0 -16,-7 -16,-16 0,-9 7,-16 16,-16z"/>
  <polygon class="fil8" points="2221,879 2287,862 2298,903 2232,920 "/>
  <polygon class="fil2" points="2181,890 2247,872 2258,913 2192,931 "/>
  <path class="fil4" d="M1855 1203l714 -191c6,-2 10,-8 8,-15l0 0c-2,-6 -9,-10 -15,-8l-714 191c-6,2 -10,8 -8,15l0 0c2,6 9,10 15,8z"/>
  <path class="fil9" d="M1022 2108l1860 0c57,0 105,47 105,105l0 30c0,41 -34,75 -75,75l-1855 0c-57,0 -105,-47 -105,-105l0 -34c0,-39 32,-70 70,-70z"/>
  <path class="fil4" d="M1022 2108l1860 0c48,0 89,33 101,78 -7,50 -39,88 -76,88l-1846 0c-51,0 -93,-50 -105,-117 9,-29 36,-50 67,-50z"/>
  <path class="fil10" d="M756 1583l394 0c57,0 135,47 172,105l203 316c37,57 20,105 -37,105l-490 0c-57,0 -135,-47 -172,-105l-141 -220c-71,-111 -39,-201 72,-201z"/>
  <path class="fil5" d="M793 1583l357 0c57,0 135,47 172,105l203 316c37,57 20,105 -37,105l-417 0c-57,0 -129,-51 -172,-105l-177 -220c-82,-102 -39,-201 72,-201z"/>
  <path class="fil10" d="M1265 1628c22,17 42,37 56,59l203 316c6,10 11,19 14,28 -9,15 -26,24 -51,24l-364 0c-57,0 -135,-47 -172,-105l-167 -260c-27,-42 -15,-76 27,-76l393 0c19,0 39,5 60,14z"/>
  <path class="fil10" d="M1022 2108l1385 0c57,0 105,47 105,105l0 30c0,41 -34,75 -75,75l-1380 0c-57,0 -105,-47 -105,-105l0 -34c0,-39 32,-70 70,-70z"/>
  <path class="fil5" d="M1022 2108l1385 0c57,0 105,47 105,105l0 2c0,33 -27,60 -60,60l-1417 0c-46,0 -83,-37 -83,-83l0 -13c0,-39 32,-70 70,-70z"/>
  <path class="fil7" d="M812 1596l393 0c57,0 135,47 172,105l148 231c37,58 20,105 -37,105l-364 0c-57,0 -135,-47 -172,-105l-167 -260c-27,-42 -15,-76 27,-76z"/>
  <path class="fil6" d="M1102 2056l1754 0c29,0 53,24 53,53l0 29c0,13 -11,24 -24,24l-1812 0c-13,0 -24,-11 -24,-24l0 -29c0,-29 24,-53 53,-53z"/>
  <path class="fil7" d="M1102 2056l1286 0c29,0 53,24 53,53l0 29c0,13 -11,24 -24,24l-1344 0c-13,0 -24,-11 -24,-24l0 -29c0,-29 24,-53 53,-53z"/>
  <path class="fil2" d="M1141 2317l1622 0 0 125c0,36 -29,65 -65,65l-1492 0c-36,0 -65,-29 -65,-65l0 -124z"/>
  <path class="fil11" d="M1141 2317l1138 0 0 125c0,36 -29,65 -65,65l-1008 0c-36,0 -65,-29 -65,-65l0 -124z"/>
  <path class="fil12" d="M1305 2349c42,0 76,34 76,76 0,42 -34,76 -76,76 -42,0 -76,-34 -76,-76 0,-42 34,-76 76,-76z"/>
  <path class="fil2" d="M1294 2336c42,0 76,34 76,76 0,42 -34,76 -76,76 -42,0 -76,-34 -76,-76 0,-42 34,-76 76,-76z"/>
  <polygon class="fil12" points="1418,2888 1517,2888 1517,2506 1418,2506 "/>
  <polygon class="fil12" points="1903,2888 2002,2888 2002,2506 1903,2506 "/>
  <polygon class="fil13 str0" points="1903,2888 2002,2888 2002,2506 1903,2506 "/>
  <path class="fil14" d="M1389 2506l157 0 0 196c0,16 -13,29 -29,29l-99 0c-16,0 -29,-13 -29,-29l0 -196z"/>
  <path class="fil2" d="M1389 2506l117 0 0 196c0,16 -13,29 -29,29l-60 0c-16,0 -29,-13 -29,-29l0 -196z"/>
  <path class="fil14" d="M1874 2506l157 0 0 196c0,16 -13,29 -29,29l-99 0c-16,0 -29,-13 -29,-29l0 -196z"/>
  <polygon class="fil15" points="2393,2888 2492,2888 2492,2506 2393,2506 "/>
  <path class="fil16" d="M2364 2506l157 0 0 196c0,16 -13,29 -29,29l-99 0c-16,0 -29,-13 -29,-29l0 -196z"/>
  <polygon class="fil11" points="1285,2369 1303,2369 1303,2402 1336,2402 1336,2421 1303,2421 1303,2454 1285,2454 1285,2421 1252,2421 1252,2402 1285,2402 "/>
  <path class="fil12" d="M1460 2352l692 0c33,0 59,27 59,59l0 0c0,33 -27,59 -59,59l-692 0c-33,0 -59,-27 -59,-59l0 0c0,-33 27,-59 59,-59z"/>
  <path class="fil4" d="M2891 2888l-1844 0c-52,0 -95,43 -95,95l0 0 2034 0 0 0c0,-52 -43,-95 -95,-95z"/>
  <path class="fil5" d="M2416 2888l-1369 0c-52,0 -95,43 -95,95l0 0 1560 0 0 0c0,-52 -43,-95 -95,-95z"/>
  <path class="fil6" d="M1100 2121l1290 0c6,0 10,5 10,10l0 0c0,6 -5,10 -10,10l-1290 0c-6,0 -10,-5 -10,-10l0 0c0,-6 5,-10 10,-10z"/>
  <path class="fil17" d="M1073 2162l1814 0 0 0c0,14 -11,25 -25,25l-1763 0c-14,0 -25,-11 -25,-25l0 0z"/>
  <path class="fil9" d="M1073 2162l1327 0 0 0c0,14 -11,25 -25,25l-1277 0c-14,0 -25,-11 -25,-25l0 0z"/>
  <path class="fil2" d="M1435 2399l223 0 0 24 -223 0 0 -24zm520 0l223 0 0 24 -223 0 0 -24zm-260 0l223 0 0 24 -223 0 0 -24z"/>
  <path class="fil16" d="M1417 2520l0 0c5,0 10,4 10,10l0 177c0,5 -4,10 -10,10l0 0c-5,0 -10,-4 -10,-10l0 -177c0,-5 4,-10 10,-10z"/>
  <path class="fil2" d="M1874 2506l117 0 0 196c0,16 -13,29 -29,29l-60 0c-16,0 -29,-13 -29,-29l0 -196z"/>
  <path class="fil16" d="M1905 2520l0 0c5,0 10,4 10,10l0 177c0,5 -4,10 -10,10l0 0c-5,0 -10,-4 -10,-10l0 -177c0,-5 4,-10 10,-10z"/>
  <path class="fil11" d="M1418 2751l51 0c16,0 29,13 29,29l0 108 -80 0 0 -137z"/>
  <path class="fil11" d="M1903 2751l51 0c16,0 29,13 29,29l0 108 -80 0 0 -137z"/>
  <path class="fil3" d="M2364 2506l117 0 0 196c0,16 -13,29 -29,29l-60 0c-16,0 -29,-13 -29,-29l0 -196z"/>
  <path class="fil18" d="M2398 2520l0 0c5,0 10,4 10,10l0 177c0,5 -4,10 -10,10l0 0c-5,0 -10,-4 -10,-10l0 -177c0,-5 4,-10 10,-10z"/>
  <path class="fil2" d="M2393 2751l51 0c16,0 29,13 29,29l0 108 -80 0 0 -137z"/>
  <path class="fil2" d="M3355 2103l390 0 0 792 -133 0 0 -602c0,-34 -28,-62 -62,-62l0 0c-34,0 -62,28 -62,62l0 602 -133 0 0 -792z"/>
  <path class="fil19" d="M3355 2103l390 0 0 291 -133 0 0 -101c0,-34 -28,-62 -62,-62l0 0c-34,0 -62,28 -62,62l0 101 -133 0 0 -291z"/>
  <path class="fil7" d="M3493 1345l115 0c140,0 255,115 255,255l0 167 -53 0 0 493 -185 0 0 -372 -151 0 0 372 -180 0 0 -430 -57 0 0 -231c0,-141 115,-256 256,-256z"/>
  <path class="fil4" d="M3493 1345l115 0c6,0 12,0 18,1l0 76c0,41 -34,75 -75,75l0 0c-41,0 -75,-34 -75,-75l0 -76c6,0 12,-1 18,-1z"/>
  <path class="fil9" d="M3493 1345l10 0 0 135c-17,-14 -28,-35 -28,-59l0 -76c6,0 12,-1 18,-1z"/>
  <path class="fil20" d="M3485 1164l129 0 0 179c0,36 -29,65 -65,65l0 0c-36,0 -65,-29 -65,-65l0 -179z"/>
  <path class="fil21" d="M3541 739l18 0c113,0 206,93 206,206l0 33c0,29 -23,52 -52,52l-325 0c-29,0 -52,-23 -52,-52l0 -32c0,-113 93,-206 206,-206z"/>
  <path class="fil22" d="M3486 884l128 0c73,0 133,60 133,133l0 89c0,108 -89,197 -197,197l0 0c-108,0 -197,-89 -197,-197l0 -89c0,-73 60,-133 133,-133z"/>
  <path class="fil23" d="M3458 1047c10,0 18,8 18,18 0,10 -8,18 -18,18 -10,0 -18,-8 -18,-18 0,-10 8,-18 18,-18z"/>
  <path class="fil23" d="M3638 1047c10,0 18,8 18,18 0,10 -8,18 -18,18 -10,0 -18,-8 -18,-18 0,-10 8,-18 18,-18z"/>
  <path class="fil24" d="M3507 1210l87 0c2,0 3,2 3,3l0 0c0,13 -11,24 -24,24l-45 0c-13,0 -24,-11 -24,-24l0 0c0,-2 2,-3 3,-3z"/>
  <path class="fil25" d="M3353 1017l-8 0c-15,0 -27,12 -27,27l0 33c0,19 16,35 35,35l0 -96z"/>
  <path class="fil24" d="M3331 1105c6,5 14,8 22,8l0 -78 -6 0c-13,0 -23,10 -23,23l0 28c0,7 3,14 7,19z"/>
  <path class="fil24" d="M3553 1060l26 62c2,4 2,15 0,15l-58 0c-2,0 -2,-11 0,-15l26 -62c2,-4 5,-4 6,0z"/>
  <polygon class="fil26" points="3750,1835 3750,1497 3350,1497 3350,1811 "/>
  <path class="fil27" d="M3475 1847l0 415 -180 0 0 -437 180 0 0 22zm336 0l0 415 -185 0 0 -437 185 0 0 22z"/>
  <path class="fil28" d="M3615 1327c11,5 21,12 29,20 18,18 29,42 29,69l0 137c0,27 -11,51 -29,69 -18,18 -42,29 -69,29l-50 0c-27,0 -51,-11 -69,-29 -18,-18 -29,-42 -29,-69l0 -137c0,-27 11,-51 29,-69 8,-8 18,-15 29,-20l0 17c0,0 0,1 0,1 -7,4 -13,8 -18,14 -15,15 -24,35 -24,57l0 137c0,22 9,43 24,57 15,15 35,24 57,24l50 0c22,0 43,-9 57,-24 15,-15 24,-35 24,-57l0 -137c0,-22 -9,-43 -24,-57 -5,-5 -11,-10 -18,-14 0,0 0,-1 0,-1l0 -17z"/>
  <polygon class="fil9" points="3475,2229 3625,2229 3625,1889 3475,1889 "/>
  <path class="fil4" d="M3625 1941l0 263 -71 0c-29,0 -52,-24 -52,-52l0 -211 124 0z"/>
  <path class="fil29" d="M3506 1530l218 58c20,5 32,26 26,46l-102 379 -290 -78 102 -379c5,-20 26,-32 46,-26z"/>
  <path class="fil7" d="M3257 1746l331 89 -29 108 -293 -78c-21,-6 -34,-28 -28,-49l19 -69z"/>
  <path class="fil7" d="M3532 1679l331 89 -14 54c-8,30 -39,47 -68,39l-277 -74 29 -108z"/>
  <path class="fil4" d="M3561 1527l125 33c10,3 16,13 13,23l0 0c-3,10 -13,16 -23,13l-125 -33c-10,-3 -16,-13 -13,-23l0 0c3,-10 13,-16 23,-13z"/>
  <path class="fil30" d="M3506 1776l-6 -2c-12,-3 -19,-16 -16,-28l12 -46c3,-12 16,-19 28,-16l6 2 -24 90z"/>
  <path class="fil30" d="M3586 1844l6 2c12,3 19,15 16,27l-12 46c-3,12 -15,19 -27,16l-6 -2 24 -89z"/>
  <path class="fil31" d="M3444 1131c13,0 24,11 24,24 0,13 -11,24 -24,24 -13,0 -24,-11 -24,-24 0,-13 11,-24 24,-24z"/>
  <path class="fil31" d="M3656 1131c13,0 24,11 24,24 0,13 -11,24 -24,24 -13,0 -24,-11 -24,-24 0,-13 11,-24 24,-24z"/>
  <path class="fil25" d="M3747 1017l8 0c15,0 27,12 27,27l0 33c0,19 -16,35 -35,35l0 -96z"/>
  <path class="fil24" d="M3769 1105c-6,5 -14,8 -22,8l0 0 0 -78 6 0c13,0 23,10 23,23l0 28c0,7 -3,14 -7,19z"/>
  <path class="fil32" d="M3488 2895l-158 0c-35,0 -64,29 -64,64l0 12c0,7 6,13 13,13l196 0c7,0 13,-6 13,-13l0 -76z"/>
  <path class="fil33" d="M3266 2968l0 3c0,7 6,13 13,13l196 0c7,0 13,-6 13,-13l0 -3 -222 0z"/>
  <path class="fil34" d="M3355 2895l-24 0c-30,0 -56,21 -63,49l70 0c9,0 17,-8 17,-17l0 -32z"/>
  <path class="fil29" d="M3334 2890l0 0c2,0 4,2 4,4l0 21c0,2 -2,4 -4,4l0 0c-2,0 -4,-2 -4,-4l0 -21c0,-2 2,-4 4,-4z"/>
  <path class="fil29" d="M3315 2892l0 0c2,0 4,2 4,4l0 20c0,2 -2,4 -4,4l0 0c-2,0 -4,-2 -4,-4l0 -20c0,-2 2,-4 4,-4z"/>
  <path class="fil32" d="M3745 2895l-158 0c-35,0 -64,29 -64,64l0 12c0,7 6,13 13,13l196 0c7,0 13,-6 13,-13l0 -76z"/>
  <path class="fil33" d="M3523 2968l0 3c0,7 6,13 13,13l196 0c7,0 13,-6 13,-13l0 -3 -222 0z"/>
  <path class="fil34" d="M3612 2895l-24 0c-30,0 -56,21 -63,49l70 0c9,0 17,-8 17,-17l0 -32z"/>
  <path class="fil29" d="M3591 2890l0 0c2,0 4,2 4,4l0 21c0,2 -2,4 -4,4l0 0c-2,0 -4,-2 -4,-4l0 -21c0,-2 2,-4 4,-4z"/>
  <path class="fil29" d="M3573 2892l0 0c2,0 4,2 4,4l0 20c0,2 -2,4 -4,4l0 0c-2,0 -4,-2 -4,-4l0 -20c0,-2 2,-4 4,-4z"/>
  <polygon class="fil19" points="3444,2895 3488,2895 3488,2386 3444,2386 "/>
  <polygon class="fil19" points="3702,2895 3745,2895 3745,2386 3702,2386 "/>
  <path class="fil4" d="M1029 2964l1406 0c11,0 20,9 20,20l0 0 -1445 0 0 0c0,-11 9,-20 20,-20z"/>
  <polygon class="fil0" points="1640,688 2237,688 2237,607 1640,607 "/>
  <polygon class="fil0" points="2436,688 3033,688 3033,607 2436,607 "/>
  <path class="fil10" d="M1062 1101l311 0c15,0 27,12 27,27l0 318c0,15 -12,27 -27,27l-371 0c-81,0 -129,-76 -90,-148l91 -166c16,-29 27,-59 59,-59z"/>
  <path class="fil5" d="M1089 1101l281 0c17,0 31,14 31,31l0 311c0,17 -14,31 -31,31l-281 0c-17,0 -31,-14 -31,-31l0 -310c0,-17 14,-31 31,-31z"/>
  <path class="fil7" d="M1099 1122l262 0c12,0 23,10 23,23l0 286c0,12 -10,23 -23,23l-262 0c-12,0 -23,-10 -23,-23l0 -286c0,-12 10,-23 23,-23z"/>
  <path class="fil10" d="M1107 1141l197 0c6,0 10,5 10,10l0 274c0,6 -5,10 -10,10l-197 0c-6,0 -10,-5 -10,-10l0 -274c0,-6 5,-10 10,-10z"/>
  <polygon class="fil35" points="1096,1278 1133,1278 1136,1283 1153,1310 1186,1245 1193,1230 1202,1244 1226,1278 1314,1278 1314,1297 1215,1297 1212,1293 1196,1268 1162,1335 1154,1351 1145,1336 1122,1297 1096,1297 "/>
  <path class="fil10" d="M1362 1387c8,4 14,13 14,22 0,10 -6,18 -14,22l0 2 -11 0c-14,0 -25,-11 -25,-25 0,-14 11,-25 25,-25l11 0 0 2z"/>
  <path class="fil10" d="M1356 1314c4,3 7,7 7,12 0,5 -3,10 -7,12l0 2 -8 0c-8,0 -15,-7 -15,-15 0,-8 7,-15 15,-15l8 0 0 2z"/>
  <path class="fil3" d="M1362 1385c14,0 25,11 25,25 0,14 -11,25 -25,25 -14,0 -25,-11 -25,-25 0,-14 11,-25 25,-25z"/>
  <path class="fil3" d="M1356 1312c8,0 15,7 15,15 0,8 -7,15 -15,15 -8,0 -15,-7 -15,-15 0,-8 7,-15 15,-15z"/>
  <path class="fil10" d="M1356 1244c4,3 7,7 7,12 0,5 -3,10 -7,12l0 2 -8 0c-8,0 -15,-7 -15,-15 0,-8 7,-15 15,-15l8 0 0 2z"/>
  <path class="fil3" d="M1356 1241c8,0 15,7 15,15 0,8 -7,15 -15,15 -8,0 -15,-7 -15,-15 0,-8 7,-15 15,-15z"/>
  <path class="fil10" d="M1356 1171c4,3 7,7 7,12 0,5 -3,10 -7,12l0 2 -8 0c-8,0 -15,-7 -15,-15 0,-8 7,-15 15,-15l8 0 0 2z"/>
  <path class="fil3" d="M1356 1169c8,0 15,7 15,15 0,8 -7,15 -15,15 -8,0 -15,-7 -15,-15 0,-8 7,-15 15,-15z"/>
  <path class="fil1" d="M1109 554c103,0 186,83 186,186 0,103 -83,186 -186,186 -103,0 -186,-83 -186,-186 0,-103 83,-186 186,-186z"/>
  <path class="fil36" d="M1200 803c8,7 8,20 0,27 -7,8 -20,8 -27,0l-78 -77 -6 -6 0 -134c0,-11 9,-19 19,-19 11,0 19,9 19,19l0 118 72 71z"/>
  <path class="fil0" d="M1070 1511l281 0c12,0 22,10 22,22l0 0c0,12 -10,22 -22,22l-281 0c-12,0 -22,-10 -22,-22l0 0c0,-12 10,-22 22,-22z"/>
 </g>
</svg>
